<?xml version="1.0" encoding="utf-8"?>
<!-- Generator: Adobe Illustrator 26.0.2, SVG Export Plug-In . SVG Version: 6.00 Build 0)  -->
<svg version="1.1" id="Ebene_1" xmlns="http://www.w3.org/2000/svg" xmlns:xlink="http://www.w3.org/1999/xlink" x="0px" y="0px"
	 viewBox="0 0 545.7 229.1" style="enable-background:new 0 0 545.7 229.1;" xml:space="preserve">
<path d="M461.8,30.6l-35.4,35.3l23.4,23.4H256.3c-1.8,2.5-3.2,5.2-4.4,8c-1.8,4.2-3,8.6-3.4,13.2c-0.1,1.4-0.2,2.8-0.2,4.3
	s0.1,2.7,0.2,4.1c0.4,4.4,1.5,8.8,3.2,12.9c1.1,2.7,2.5,5.2,4.1,7.6H352c-1.4,3.5-3.2,6.8-5.2,10c-19.1,29.9-58.9,38.7-88.9,19.6
	c-7.9-5-14.6-11.7-19.6-19.6c-5.5-8.6-8.9-18.5-9.9-28.7c-0.2-1.9-0.3-3.9-0.3-5.9c0-2.1,0.1-4.2,0.3-6.2c1-10.5,4.6-20.5,10.4-29.2
	c19.5-29.6,59.3-37.8,89-18.3c3.7,2.4,7.1,5.2,10.2,8.3h59.4c-25-57.9-92.3-84.6-150.2-59.5c-17,7.4-32,18.8-43.7,33.2
	C164.3-6.3,92.4-14.4,43.1,24.9C28.3,36.7,16.7,52,9.2,69.3h59.2c24.9-25.4,65.6-25.8,91-0.9c3.4,3.3,6.3,6.9,8.9,10.9
	c5.7,8.7,9.2,18.7,10.1,29.1c0.2,1.9,0.3,3.9,0.3,5.9c0,2.1-0.1,4.2-0.3,6.2c-0.6,6.5-2.2,12.8-4.8,18.8c-3.2,7.4-7.7,14.2-13.4,20
	c-24.9,25.4-65.6,25.8-91,0.9c-3.4-3.3-6.3-6.9-8.9-10.9c-2.1-3.2-3.9-6.5-5.3-10h96c4.2-6.2,6.8-13.3,7.5-20.7
	c0.1-1.4,0.2-2.8,0.2-4.3s-0.1-2.7-0.2-4.1c-0.4-4.5-1.5-8.9-3.3-13.1c-1.2-2.7-2.6-5.4-4.3-7.8H2.8
	c-13.8,61.6,24.9,122.7,86.5,136.6c42.5,9.5,86.7-5.9,114-39.8c39.3,49.3,111.2,57.4,160.6,18.1c14.9-11.9,26.6-27.3,34-44.8
	c1.4-3.3,2.6-6.6,3.7-10c1-3.3,1.9-6.6,2.7-10h46l-23.8,23.8l35.4,35.4l84-84L461.8,30.6z"/>
</svg>
