<?xml version="1.0" encoding="UTF-8"?>
<svg id="Ebene_1" xmlns="http://www.w3.org/2000/svg" version="1.1" viewBox="0 0 545.7 229.1">
  <!-- Generator: Adobe Illustrator 30.1.0, SVG Export Plug-In . SVG Version: 2.1.1 Build 136)  -->
  <defs>
    <style>
      .st0 {
        fill: #fff;
      }
    </style>
  </defs>
  <path class="st0" d="M461.8,30.6l-35.4,35.3,23.4,23.4h-193.5c-1.8,2.5-3.2,5.2-4.4,8-1.8,4.2-3,8.6-3.4,13.2-.1,1.4-.2,2.8-.2,4.3s.1,2.7.2,4.1c.4,4.4,1.5,8.8,3.2,12.9,1.1,2.7,2.5,5.2,4.1,7.6h96.2c-1.4,3.5-3.2,6.8-5.2,10-19.1,29.9-58.9,38.7-88.9,19.6-7.9-5-14.6-11.7-19.6-19.6-5.5-8.6-8.9-18.5-9.9-28.7-.2-1.9-.3-3.9-.3-5.9s.1-4.2.3-6.2c1-10.5,4.6-20.5,10.4-29.2,19.5-29.6,59.3-37.8,89-18.3,3.7,2.4,7.1,5.2,10.2,8.3h59.4C372.4,11.5,305.1-15.2,247.2,9.9c-17,7.4-32,18.8-43.7,33.2C164.3-6.3,92.4-14.4,43.1,24.9c-14.8,11.8-26.4,27.1-33.9,44.4h59.2c24.9-25.4,65.6-25.8,91-.9,3.4,3.3,6.3,6.9,8.9,10.9,5.7,8.7,9.2,18.7,10.1,29.1.2,1.9.3,3.9.3,5.9s-.1,4.2-.3,6.2c-.6,6.5-2.2,12.8-4.8,18.8-3.2,7.4-7.7,14.2-13.4,20-24.9,25.4-65.6,25.8-91,.9-3.4-3.3-6.3-6.9-8.9-10.9-2.1-3.2-3.9-6.5-5.3-10h96c4.2-6.2,6.8-13.3,7.5-20.7.1-1.4.2-2.8.2-4.3s-.1-2.7-.2-4.1c-.4-4.5-1.5-8.9-3.3-13.1-1.2-2.7-2.6-5.4-4.3-7.8H2.8c-13.8,61.6,24.9,122.7,86.5,136.6,42.5,9.5,86.7-5.9,114-39.8,39.3,49.3,111.2,57.4,160.6,18.1,14.9-11.9,26.6-27.3,34-44.8,1.4-3.3,2.6-6.6,3.7-10,1-3.3,1.9-6.6,2.7-10h46l-23.8,23.8,35.4,35.4,84-84-84.1-84Z"/>
</svg>